<?xml version="1.0" standalone="no"?>
<!DOCTYPE svg PUBLIC "-//W3C//DTD SVG 20010904//EN"
 "http://www.w3.org/TR/2001/REC-SVG-20010904/DTD/svg10.dtd">
<svg version="1.0" xmlns="http://www.w3.org/2000/svg"
 width="756.000000pt" height="761.000000pt" viewBox="0 0 756.000000 761.000000"
 preserveAspectRatio="xMidYMid meet">

<g transform="translate(0.000000,761.000000) scale(0.100000,-0.100000)"
fill="#000000" stroke="none">
<path d="M3605 7523 c-41 -2 -266 -27 -350 -38 -288 -37 -713 -169 -1015 -314
-452 -217 -783 -459 -1128 -822 -347 -366 -601 -761 -789 -1229 -63 -158 -145
-429 -173 -575 -6 -33 -15 -78 -20 -100 -5 -22 -13 -71 -19 -110 -6 -38 -13
-88 -17 -110 -11 -75 -24 -240 -31 -395 -7 -178 4 -322 48 -625 36 -251 146
-644 239 -850 14 -33 33 -76 40 -95 19 -48 149 -302 189 -370 94 -160 261
-396 371 -526 73 -85 341 -353 440 -439 357 -309 829 -577 1285 -730 543 -182
1210 -224 1810 -114 1256 230 2359 1170 2817 2399 84 226 175 591 197 790 5
47 15 125 21 174 14 109 8 655 -8 736 -6 30 -16 102 -22 159 -5 57 -14 109
-19 115 -4 6 -11 41 -15 79 -4 37 -11 80 -18 95 -6 15 -16 54 -23 87 -16 70
-51 191 -64 220 -5 11 -15 41 -21 68 -7 26 -17 50 -21 53 -5 3 -9 13 -9 22 0
10 -9 35 -20 57 -11 22 -20 44 -20 50 0 6 -9 28 -20 50 -11 22 -20 43 -20 47
0 11 -139 291 -148 298 -4 3 -23 35 -42 72 -19 38 -38 68 -42 68 -5 0 -8 6 -8
13 0 7 -9 23 -20 35 -11 12 -20 25 -20 30 0 7 -83 131 -112 167 -4 6 -29 37
-53 70 -125 164 -149 192 -344 386 -247 248 -347 330 -622 513 -431 289 -984
495 -1514 565 -210 28 -482 37 -690 24z m247 -230 c9 -10 32 -53 52 -95 33
-70 40 -78 74 -88 20 -5 44 -10 53 -10 8 0 38 -7 66 -15 70 -21 75 -41 22 -87
-41 -36 -42 -36 -67 -20 -23 15 -25 15 -20 1 4 -9 1 -16 -8 -16 -7 0 -11 4 -8
9 3 4 -2 5 -10 2 -9 -3 -13 -10 -10 -15 3 -5 -3 -6 -12 -2 -13 5 -16 3 -11
-10 4 -12 2 -15 -11 -11 -16 5 -16 4 -1 -8 13 -11 14 -16 4 -25 -7 -7 -14 -10
-16 -8 -2 2 -5 -17 -7 -43 -2 -25 -5 -49 -8 -54 -9 -14 -48 -9 -82 12 l-34 21
-54 -27 c-32 -16 -65 -25 -81 -22 -25 3 -28 1 -28 -24 0 -18 5 -28 15 -29 10
0 11 -2 2 -6 -6 -2 -9 -10 -5 -16 3 -7 -4 -3 -16 8 -19 17 -22 26 -17 60 16
105 16 107 -17 139 -18 17 -53 45 -79 63 -57 38 -72 63 -55 87 12 17 27 21
150 46 l59 12 34 73 c49 109 89 140 126 98z m-612 -119 c0 -8 -4 -13 -9 -10
-5 3 -23 1 -40 -5 -44 -15 -51 -3 -10 15 45 19 59 19 59 0z m1368 -75 c23 -47
35 -58 87 -83 l60 -29 -51 -23 c-55 -24 -86 -56 -106 -110 -6 -19 -14 -34 -18
-34 -3 1 -16 24 -30 53 -21 44 -34 57 -83 83 -64 34 -63 37 11 69 36 15 47 28
70 76 15 32 28 56 30 55 1 -2 15 -27 30 -57z m-1441 -39 c-1 -16 -6 -30 -10
-30 -5 0 -5 -4 -2 -10 3 -6 -1 -7 -9 -4 -18 7 -22 24 -6 24 5 0 12 11 16 25 8
34 14 32 11 -5z m-394 -125 c76 -20 160 -63 224 -116 44 -35 51 -45 40 -58
-10 -12 -9 -14 3 -9 25 9 22 -29 -3 -47 -19 -13 -23 -13 -38 1 -17 15 -19 37
-6 50 4 4 7 -3 7 -16 0 -19 3 -21 12 -12 19 19 18 42 0 39 -26 -4 -43 -17 -37
-28 12 -19 -12 -8 -45 21 -28 25 -30 28 -10 19 23 -11 24 -11 11 4 -8 11 -22
15 -36 11 -13 -3 -28 1 -37 10 -9 8 -18 12 -22 9 -3 -3 -11 -1 -18 4 -7 6 -45
16 -85 23 -147 24 -314 -30 -418 -134 l-51 -51 -31 34 -32 34 26 31 c129 153
360 230 546 181z m1217 -56 c0 -6 -4 -7 -10 -4 -5 3 -10 11 -10 16 0 6 5 7 10
4 6 -3 10 -11 10 -16z m1235 -30 c52 -15 120 -82 134 -134 l10 -40 64 0 c55 0
69 -4 101 -29 95 -72 111 -191 38 -278 -47 -56 -61 -58 -407 -58 -342 0 -343
0 -397 57 -50 52 -62 130 -33 201 33 78 90 115 177 114 55 -1 57 0 63 28 10
47 63 110 108 131 48 21 85 24 142 8z m-2484 -114 c24 -10 28 -14 14 -15 -16
0 -17 -2 -5 -10 8 -5 12 -11 10 -13 -11 -11 -103 -37 -127 -37 -15 0 -54 -8
-86 -17 -47 -13 -73 -28 -121 -74 -49 -46 -65 -55 -79 -48 -63 36 63 173 196
214 57 18 157 18 198 0z m-74 -191 c-3 -3 -12 -4 -19 -1 -8 3 -5 6 6 6 11 1
17 -2 13 -5z m54 -21 c8 -6 18 -12 22 -12 4 0 14 -7 22 -14 12 -12 12 -17 -1
-36 -8 -11 -11 -21 -5 -21 5 0 15 8 21 18 14 21 9 6 -10 -31 -8 -16 -19 -26
-27 -23 -9 4 -13 -4 -14 -22 -2 -76 -35 -115 -98 -115 -52 0 -79 24 -87 75 -4
20 -10 35 -15 33 -4 -3 -4 8 1 25 5 19 5 28 -1 25 -5 -4 -9 -13 -9 -22 0 -9
-6 -13 -14 -10 -8 3 -17 2 -20 -4 -2 -5 -3 -4 -1 3 1 7 8 12 14 11 6 -2 11 2
11 7 0 6 -4 10 -10 10 -5 0 -10 9 -10 20 0 37 85 100 112 84 6 -4 8 -3 5 3 -8
13 97 10 114 -4z m-810 -24 c41 -13 68 -38 86 -81 12 -27 8 -38 -13 -38 -12 0
-41 66 -36 83 1 5 -1 6 -5 4 -9 -6 -103 10 -112 19 -6 6 18 24 33 24 5 0 26
-5 47 -11z m2039 -39 c115 -23 213 -71 305 -147 65 -53 67 -57 61 -92 -3 -20
-10 -37 -16 -39 -5 -2 -10 -8 -10 -14 0 -15 -37 -48 -100 -88 -47 -30 -64 -35
-127 -39 -64 -3 -76 -6 -93 -28 -27 -35 -26 -85 4 -120 l24 -28 170 0 171 0 3
-73 3 -72 -170 0 c-118 -1 -175 -4 -186 -13 -44 -34 -51 -102 -15 -144 l24
-28 166 -1 c92 -1 168 -3 170 -5 2 -2 6 -34 8 -71 l4 -68 -177 0 -178 0 -20
-26 c-30 -38 -28 -98 4 -129 24 -25 27 -25 193 -25 l170 0 4 -77 c3 -43 4 -79
4 -80 -1 0 -290 -3 -644 -5 l-642 -3 0 83 0 82 268 0 268 0 29 29 c24 26 27
35 22 72 -10 75 -4 74 -312 77 l-275 3 0 74 0 75 268 0 c280 1 286 2 310 47
24 44 7 103 -35 122 -15 7 -115 11 -283 11 l-260 0 0 38 c3 349 255 643 605
707 101 19 177 17 285 -5z m-2091 -79 c8 -16 25 -91 23 -102 0 -3 21 -6 47 -8
50 -2 81 15 81 45 0 8 4 14 10 14 5 0 6 -7 3 -17 -5 -11 -3 -14 6 -8 24 14 -8
-34 -32 -49 -39 -26 -74 -29 -105 -10 -29 16 -62 70 -62 99 0 8 -10 20 -22 26
-30 16 -29 14 -22 32 4 12 11 13 35 5 16 -5 33 -18 38 -27z m4091 -32 c0 -31
70 -110 115 -130 40 -18 40 -18 6 -12 -22 4 -36 1 -43 -8 -8 -11 -9 -11 -5 3
3 9 0 21 -6 26 -9 8 -12 3 -14 -16 0 -15 4 -31 10 -35 7 -5 1 -5 -12 -2 -19 6
-23 4 -18 -9 4 -10 1 -16 -7 -16 -8 0 -17 -7 -20 -16 -3 -9 -13 -14 -20 -11
-8 3 -20 -2 -28 -11 -12 -15 -11 -16 4 -4 15 12 16 11 5 -12 l-12 -25 -15 31
c-12 26 -93 87 -115 88 -3 0 -9 0 -15 0 -27 0 -4 24 44 45 45 20 60 33 91 84
36 60 55 70 55 30z m-4441 -305 c26 -33 26 -42 -1 -71 -26 -28 -32 -28 -69 -2
-23 16 -28 26 -24 47 9 54 61 68 94 26z m4063 9 c22 -20 23 -51 1 -75 -15 -17
-38 -18 -320 -18 -290 0 -304 1 -323 20 -24 24 -25 47 -3 72 15 17 38 18 321
18 270 0 308 -2 324 -17z m-3232 -19 c67 -11 187 -89 211 -137 9 -20 9 -20 -4
-4 -8 9 -18 17 -22 17 -4 0 -4 -8 -1 -17 5 -15 4 -15 -9 1 -8 11 -15 16 -15
12 0 -5 -8 -2 -17 5 -15 13 -16 12 -11 -9 5 -17 2 -22 -10 -20 -10 2 -16 -2
-15 -9 2 -7 -18 1 -44 17 -26 17 -55 30 -66 30 -10 0 -16 3 -14 8 7 10 -150
-3 -190 -16 -65 -21 -121 -69 -154 -131 -23 -44 -19 -75 12 -91 20 -11 59 2
59 20 0 5 14 25 32 45 72 83 187 105 267 52 24 -16 46 -37 48 -48 3 -10 8 -17
12 -15 4 3 15 -10 25 -27 9 -18 12 -26 5 -20 -10 10 -16 10 -28 1 -13 -10 -14
-10 -3 2 18 21 15 35 -5 19 -11 -10 -14 -10 -9 -1 5 8 1 12 -10 12 -10 0 -25
7 -35 16 -27 25 -137 31 -177 10 -18 -9 -37 -14 -43 -11 -5 4 -8 1 -7 -7 2 -7
-3 -12 -9 -11 -7 2 -20 -13 -28 -33 -41 -99 14 -140 85 -64 26 27 46 40 64 40
15 0 25 -4 22 -9 -3 -4 7 -6 22 -5 15 2 21 1 15 -2 -19 -9 -16 -27 3 -20 10 4
25 -1 35 -10 20 -18 26 -40 9 -29 -5 3 -10 2 -10 -4 0 -6 -7 -8 -16 -4 -13 5
-15 1 -10 -18 6 -20 5 -21 -4 -6 -6 9 -9 21 -6 26 12 19 -79 -1 -97 -21 -22
-26 -20 -99 2 -90 8 3 12 1 8 -4 -3 -5 12 -8 36 -7 39 3 40 2 15 -8 -22 -9
-27 -16 -24 -39 2 -21 0 -27 -11 -23 -11 4 -13 -1 -7 -23 4 -16 12 -36 18 -44
10 -13 9 -13 -9 0 -56 43 -310 312 -331 351 -41 80 -10 184 82 268 90 83 207
110 364 85z m3225 -289 c30 -29 31 -45 5 -73 -20 -22 -25 -22 -320 -22 -287 0
-301 1 -320 20 -22 22 -25 46 -10 70 8 12 54 16 277 20 147 3 285 7 306 8 29
1 44 -4 62 -23z m-3973 10 c3 -3 -3 -29 -13 -58 -15 -43 -18 -86 -19 -260 0
-115 -3 -206 -7 -204 -5 3 -124 29 -266 57 l-258 52 -59 -26 c-67 -30 -100
-28 -124 10 -58 88 57 191 157 139 27 -14 28 -13 47 24 49 96 80 117 294 193
224 80 237 84 248 73z m4847 -21 c16 -21 18 -30 9 -50 -6 -13 -21 -27 -32 -29
-12 -3 -112 -6 -223 -7 -191 -3 -204 -4 -223 -24 -12 -12 -24 -39 -26 -60 -5
-33 -1 -45 24 -74 l30 -35 303 -3 c262 -2 306 -5 321 -19 22 -20 23 -51 1 -75
-15 -17 -38 -18 -323 -18 l-306 0 -47 30 c-26 16 -50 36 -53 43 -3 10 -14 5
-37 -18 -18 -18 -51 -38 -72 -44 -23 -6 -128 -11 -247 -11 -195 0 -209 1 -228
20 -23 23 -25 47 -7 72 11 14 43 16 241 20 l228 3 29 33 c21 23 29 43 29 70 0
60 17 106 54 141 56 54 87 60 323 61 l212 0 20 -26z m-4052 -150 c-3 -3 -12
-4 -19 -1 -8 3 -5 6 6 6 11 1 17 -2 13 -5z m2628 -255 c204 -139 331 -256 480
-442 67 -84 80 -122 55 -165 -56 -97 -66 -233 -26 -350 13 -39 34 -85 47 -104
48 -68 155 -181 195 -204 51 -30 52 -34 60 -259 10 -248 -17 -441 -91 -663
-162 -484 -558 -938 -1020 -1169 -120 -60 -116 -56 -94 -101 10 -20 34 -73 55
-117 39 -85 241 -515 318 -678 32 -66 45 -105 41 -120 -5 -16 -4 -18 3 -8 8
11 17 0 41 -48 18 -34 29 -67 25 -74 -4 -7 -4 -9 1 -5 10 9 77 -131 71 -147
-2 -7 0 -17 6 -23 12 -12 0 -38 -30 -65 -20 -18 -47 -21 -152 -18 -37 1 -42 3
-27 12 10 6 36 9 58 7 27 -2 39 0 39 9 0 7 5 13 11 13 6 0 8 -9 4 -20 -4 -12
-2 -20 5 -20 8 0 11 11 8 30 -3 18 0 31 9 34 20 8 16 26 -22 99 -20 38 -32 73
-29 79 5 7 2 8 -6 3 -10 -6 -12 -4 -6 11 4 10 4 15 0 11 -10 -10 -35 43 -27
57 3 6 2 7 -3 3 -10 -10 -86 151 -77 166 3 5 2 7 -4 4 -9 -6 -34 41 -151 293
-112 240 -212 449 -228 477 -19 32 -34 43 -34 23 0 -5 -6 -10 -14 -10 -37 0
-40 8 179 -475 64 -143 157 -347 206 -453 49 -106 89 -197 89 -202 0 -7 -425
-10 -1190 -10 -686 0 -1190 4 -1190 9 0 5 13 37 29 72 16 35 66 145 111 244
108 239 156 343 230 505 67 145 120 273 120 288 0 16 -38 44 -50 37 -13 -8
-61 -107 -322 -665 -99 -212 -197 -419 -218 -461 -28 -56 -35 -80 -27 -88 8
-8 130 -11 406 -11 l394 0 -24 -26 c-50 -54 -51 -54 -429 -54 -395 0 -400 1
-421 70 -10 33 -6 46 74 210 46 96 112 236 147 310 69 150 102 220 167 360
137 289 183 391 183 399 0 5 -42 32 -93 59 -264 143 -465 308 -666 549 -223
266 -371 575 -425 883 -21 121 -39 371 -31 433 5 34 11 47 23 47 37 0 143 61
187 106 93 97 130 197 123 328 -5 92 -29 153 -99 247 -29 40 -39 62 -35 77 9
28 169 265 224 333 45 54 49 56 106 63 116 12 220 96 232 187 4 27 14 55 23
63 31 27 184 116 201 116 9 0 21 -10 26 -22 5 -13 9 -177 9 -366 0 -315 -1
-345 -17 -356 -10 -8 -62 -15 -119 -19 -118 -6 -141 -18 -177 -88 -20 -41 -21
-51 -12 -96 13 -58 40 -89 97 -108 48 -16 68 -64 59 -141 -7 -63 10 -351 25
-419 15 -69 66 -208 102 -280 53 -106 128 -208 221 -300 161 -160 358 -268
578 -316 62 -13 67 -20 82 -109 8 -46 42 -85 97 -110 59 -26 113 -25 176 4 64
30 101 82 110 153 l5 50 106 26 c373 92 681 378 817 757 48 136 56 191 62 443
5 233 6 237 27 237 35 0 98 43 117 80 23 43 24 101 2 147 -23 49 -78 72 -169
73 -56 0 -130 13 -135 23 -5 12 -9 665 -4 712 l7 65 41 -22 c23 -11 87 -51
142 -89z m-3043 -206 c34 -32 34 -40 6 -70 -29 -31 -52 -29 -79 8 l-21 30 28
30 c15 16 30 29 33 29 3 0 18 -12 33 -27z m3763 -23 c-11 -5 -15 -9 -10 -9 6
-1 3 -6 -5 -12 -12 -9 -13 -12 -1 -16 10 -4 10 -7 1 -13 -8 -5 -9 -10 -2 -14
6 -3 18 1 26 10 15 14 16 14 16 -6 0 -28 -27 -36 -50 -15 -36 33 -17 85 30 84
10 0 8 -3 -5 -9z m770 -59 c22 -10 57 -32 77 -50 39 -34 88 -121 88 -156 0
-19 4 -20 68 -17 79 5 125 -13 179 -70 104 -109 101 -304 -7 -402 -77 -70 -87
-71 -545 -71 -403 0 -411 0 -451 22 -97 52 -152 132 -161 233 -18 193 135 332
313 286 30 -8 31 -7 37 32 9 52 62 129 114 166 82 57 196 68 288 27z m-5699
-109 c-3 -5 18 -14 47 -21 68 -15 120 -53 153 -108 22 -38 25 -52 19 -91 -20
-131 -127 -233 -230 -217 -48 7 -158 75 -183 113 -24 36 -20 116 9 170 13 26
31 53 39 59 12 10 12 14 2 21 -17 12 22 47 73 66 45 17 79 20 71 8z m903 -88
c32 -36 32 -41 -3 -81 -24 -28 -46 -29 -68 -4 -38 45 -40 57 -9 90 16 17 34
31 39 31 5 0 24 -16 41 -36z m2821 -29 l0 -35 -668 0 -667 0 2 -388 c1 -223 6
-406 12 -432 15 -63 14 -65 -14 -78 -24 -11 -26 -9 -49 36 -60 119 -68 160
-76 422 -5 135 -9 305 -9 378 l-1 132 735 0 735 0 0 -35z m-3040 -310 c16 -8
35 -24 43 -35 13 -19 15 -19 46 -4 49 24 130 15 175 -20 105 -80 99 -237 -11
-292 -36 -18 -74 -19 -584 -22 -542 -3 -546 -2 -572 18 -30 24 -35 56 -13 86
14 18 30 19 279 22 l265 3 6 31 c3 17 23 48 45 69 38 38 58 45 122 40 20 -1
29 5 38 27 13 31 56 76 81 85 27 10 50 7 80 -8z m5467 -523 c15 -15 17 -58 4
-66 -5 -4 -11 -3 -14 1 -2 5 -2 2 0 -6 2 -7 -7 -22 -19 -32 -21 -19 -22 -19
-50 8 -52 50 -46 102 15 128 28 12 33 11 41 -3 5 -9 16 -23 23 -30z m-769 22
c12 -8 22 -26 22 -40 0 -27 -32 -64 -55 -64 -22 0 -55 37 -55 62 0 26 27 58
49 58 9 0 27 -7 39 -16z m-5598 -84 c7 -17 25 -44 40 -60 18 -19 23 -30 14
-30 -8 0 -14 -11 -15 -27 0 -16 -3 -22 -6 -14 -4 10 -11 4 -22 -19 -9 -18 -20
-32 -25 -31 -5 2 -12 -2 -15 -8 -4 -6 -24 2 -51 20 -24 16 -54 32 -67 35 -29
8 -30 31 0 40 39 12 77 45 97 85 11 21 24 39 29 39 5 0 14 -14 21 -30z m952
-62 c12 -20 10 -40 -9 -60 -22 -24 -35 -23 -63 7 -22 23 -22 25 -6 50 13 19
23 24 43 20 15 -2 30 -10 35 -17z m-842 -48 c0 -5 -2 -10 -4 -10 -3 0 -8 5
-11 10 -3 6 -1 10 4 10 6 0 11 -4 11 -10z m6488 -141 c11 -18 11 -24 -4 -40
-23 -25 -49 -24 -68 3 -20 28 -20 42 -2 35 9 -4 13 -1 10 6 -8 23 50 19 64 -4z
m-5935 -35 c27 -9 51 -22 54 -30 2 -7 11 -10 18 -8 7 3 18 -4 24 -15 13 -23
14 -44 3 -37 -4 2 -8 -15 -8 -39 0 -24 3 -42 7 -40 6 4 49 -49 49 -61 0 -4 -9
3 -20 16 -28 33 -35 19 -8 -16 12 -16 15 -23 6 -16 -13 10 -19 10 -32 -3 -9
-9 -16 -12 -16 -6 0 5 -16 27 -35 48 -19 21 -35 32 -35 26 0 -7 5 -13 10 -13
6 0 10 -7 10 -15 0 -8 4 -15 9 -15 15 0 41 -85 41 -138 0 -28 -7 -71 -17 -94
-18 -48 -51 -90 -64 -82 -5 3 -9 1 -9 -5 0 -5 -24 -21 -52 -35 -46 -21 -60
-24 -103 -16 -27 4 -59 11 -70 15 -16 6 -17 5 -5 -4 8 -6 11 -11 5 -11 -5 1
-19 7 -29 15 -10 8 -22 12 -26 10 -4 -2 -33 18 -66 46 -32 27 -74 60 -92 72
-39 27 -46 49 -39 134 3 46 14 82 36 124 17 32 29 64 26 71 -2 7 7 26 20 41
21 23 31 27 54 22 16 -3 32 -2 35 4 4 5 30 17 59 27 28 9 63 26 77 37 21 16
35 18 80 13 30 -3 77 -13 103 -22z m5469 10 c25 -5 35 -11 31 -20 -4 -11 -55
-14 -270 -14 -251 1 -267 -1 -298 -20 -19 -12 -36 -29 -39 -38 -3 -9 -6 -103
-8 -209 -2 -105 -6 -186 -10 -180 -6 9 -11 8 -18 -3 -8 -13 -10 -12 -10 3 0
10 -4 15 -10 12 -5 -3 -10 0 -10 9 0 8 -6 16 -12 18 -10 4 -14 46 -16 159 -2
145 -1 156 20 193 31 52 64 75 124 85 58 10 472 14 526 5z m-487 -104 c-9 -14
8 -13 23 2 7 7 12 8 12 2 0 -14 73 -36 92 -29 9 4 19 -4 26 -22 l13 -28 -21
25 c-23 29 -24 25 -9 -19 13 -36 6 -72 -17 -95 -18 -18 -99 -22 -109 -5 -4 6
-13 8 -19 6 -7 -3 -19 -1 -27 5 -11 8 -10 9 4 4 9 -3 17 -1 17 4 0 6 -7 10
-15 10 -8 0 -15 5 -15 10 0 6 4 10 10 10 5 0 9 11 8 24 -2 24 -12 27 -38 11
-9 -5 -7 0 4 14 16 18 17 24 6 34 -10 10 -12 9 -7 -5 4 -10 2 -18 -3 -18 -5 0
-9 11 -8 25 l2 25 30 -28 30 -27 -19 30 c-16 25 -16 28 -2 16 9 -7 18 -11 18
-7 1 3 3 11 4 16 1 6 3 12 4 15 0 3 4 5 7 5 3 0 2 -4 -1 -10z m566 -38 c5 -12
4 -24 -1 -27 -5 -3 -77 -6 -160 -6 -115 0 -149 -3 -141 -12 7 -9 3 -12 -15
-12 -26 0 -32 10 -11 18 10 4 10 7 0 18 -7 7 -13 17 -13 21 0 5 6 8 13 7 6 -1
19 1 27 4 13 6 213 14 274 11 11 0 23 -10 27 -22z m-346 -66 c8 -7 11 -16 8
-20 -4 -3 -1 -6 5 -6 7 0 12 8 12 17 0 13 3 14 12 5 7 -7 20 -12 29 -12 24 0
49 -38 49 -72 0 -15 -10 -37 -22 -49 -19 -17 -31 -20 -72 -15 -72 8 -93 52
-64 133 13 36 22 40 43 19z m115 -6 c-12 -8 -12 -10 -1 -10 8 0 12 -3 8 -6 -9
-9 -28 6 -22 17 4 5 12 9 18 9 7 0 6 -4 -3 -10z m196 -15 c8 -21 -14 -45 -33
-38 -14 6 -15 -1 -10 -53 7 -70 1 -100 -21 -109 -30 -11 -203 7 -209 22 -10
26 15 36 91 34 l75 -1 -1 67 c-1 38 1 74 6 81 11 18 95 16 102 -3z m-5403 -50
c-3 -9 -8 -14 -10 -11 -3 3 -2 9 2 15 9 16 15 13 8 -4z m-805 -131 c14 -9 21
-22 18 -31 -3 -8 -1 -11 4 -8 6 3 10 2 10 -4 0 -11 -40 -51 -49 -51 -12 1 -38
26 -50 47 -10 19 -8 26 9 43 24 24 29 25 58 4z m5803 -227 c-10 -9 -11 -8 -5
6 3 10 9 15 12 12 3 -3 0 -11 -7 -18z m-6 -44 c-10 -7 -21 -10 -24 -7 -3 4 0
9 7 11 6 3 10 9 7 14 -4 5 2 6 11 2 16 -6 15 -7 -1 -20z m-268 -105 c30 -31
31 -35 18 -63 -14 -31 -22 -40 -185 -215 -53 -58 -109 -118 -123 -133 l-26
-29 -45 42 c-41 38 -44 44 -32 61 21 31 347 369 355 369 4 0 21 -15 38 -32z
m790 -75 c-3 -2 -13 -3 -23 -1 -16 3 -16 4 2 22 18 18 19 18 22 2 2 -10 1 -20
-1 -23z m70 31 c13 -4 20 -11 16 -17 -4 -6 0 -8 10 -4 10 3 17 2 17 -3 0 -6
-20 -7 -47 -3 -57 7 -68 13 -27 14 25 0 26 2 9 9 -23 10 -10 12 22 4z m-5374
-90 c18 -9 53 -32 80 -51 46 -34 48 -35 73 -18 25 16 26 15 50 -10 14 -15 32
-38 41 -51 9 -15 22 -23 31 -19 10 3 12 0 8 -10 -3 -8 -1 -15 4 -15 5 0 17
-15 26 -32 25 -49 136 -178 147 -171 6 3 7 1 3 -5 -3 -6 6 -26 22 -44 16 -18
50 -62 77 -98 27 -36 52 -67 55 -70 3 -3 39 -50 80 -105 81 -109 89 -117 105
-108 17 10 -78 -87 -117 -118 l-36 -29 -249 267 c-137 148 -264 287 -282 311
-38 46 -48 50 -66 26 -10 -14 -15 -11 -43 27 -18 24 -32 50 -32 59 0 8 14 32
31 53 l30 37 -30 54 c-38 66 -64 136 -50 136 5 0 24 -7 42 -16z m4994 -21 c13
-9 24 -29 28 -54 10 -55 -4 -625 -16 -656 -5 -13 -6 -29 -3 -35 4 -6 2 -8 -4
-4 -6 3 -13 -2 -16 -12 -8 -25 -68 -52 -118 -52 -124 0 -212 151 -148 254 28
47 98 80 148 71 20 -3 47 -13 60 -21 l22 -14 0 162 c1 109 5 175 14 200 12 33
11 41 -5 68 -19 30 -42 39 -54 20 -9 -15 -48 -13 -39 3 4 6 -95 -89 -220 -213
-125 -124 -233 -230 -240 -237 -16 -14 -36 1 -36 27 0 20 478 496 510 508 30
12 87 4 117 -15z m436 0 c4 -4 -7 -13 -25 -20 -39 -17 -115 -8 -115 13 0 11
16 14 67 14 37 0 70 -3 73 -7z m-5853 -63 c39 -20 130 -101 130 -116 0 -5 -5
-3 -12 4 -8 8 -15 8 -23 2 -9 -7 -12 -5 -12 7 0 36 -3 42 -18 37 -8 -4 -15 -2
-15 4 0 6 -19 20 -43 31 -51 25 -134 27 -187 5 l-35 -14 48 5 c27 3 47 1 47
-5 0 -6 -10 -10 -22 -11 -14 0 -17 -3 -9 -6 11 -4 9 -8 -7 -17 -18 -10 -15
-11 26 -12 55 -1 102 -7 97 -13 -5 -4 43 -71 66 -91 9 -8 24 -27 34 -42 l17
-28 -110 0 c-83 0 -112 3 -121 14 -17 21 2 53 42 71 l32 15 -45 -4 c-34 -4
-51 -12 -72 -36 -40 -44 -38 -92 6 -136 44 -44 102 -47 158 -9 42 28 61 31 77
11 28 -33 -18 -81 -109 -113 -32 -11 -32 -12 -5 -7 l30 5 -30 -21 c-45 -30
-167 -23 -204 11 -11 11 -22 18 -23 17 -2 -1 -12 3 -22 9 -13 7 -17 17 -13 29
7 18 6 18 -8 0 -12 -16 -15 -17 -15 -4 0 9 -7 19 -15 22 -23 9 -45 69 -45 124
0 124 80 231 209 279 48 18 149 10 201 -17z m-63 -66 c-3 -3 -12 -4 -19 -1 -8
3 -5 6 6 6 11 1 17 -2 13 -5z m33 -8 c0 -2 -7 -7 -16 -10 -8 -3 -12 -2 -9 4 6
10 25 14 25 6z m4560 -181 c0 -8 -80 -99 -177 -201 -98 -103 -206 -216 -240
-253 -47 -50 -64 -63 -73 -54 -8 7 -9 17 -3 28 6 9 108 118 229 242 120 124
223 232 227 239 11 19 37 18 37 -1z m-4366 -420 c45 -16 59 -35 61 -85 5 -108
-60 -172 -152 -148 -21 5 -44 10 -52 10 -18 2 -51 58 -51 88 0 14 9 44 20 68
15 33 29 47 62 62 51 23 61 24 112 5z m4588 -42 c3 -35 6 -38 43 -47 51 -11
88 -37 115 -81 13 -21 30 -35 43 -36 18 -1 19 -2 4 -6 -11 -3 -16 -11 -13 -19
3 -8 1 -14 -4 -14 -6 0 -10 7 -10 15 0 8 -4 15 -10 15 -5 0 -3 -18 6 -41 30
-73 2 -190 -58 -246 -35 -33 -108 -63 -153 -63 -51 0 -132 24 -167 50 -33 25
-42 25 -34 3 6 -17 5 -17 -6 -1 -7 9 -21 30 -30 47 -15 27 -23 31 -58 31 -39
0 -40 1 -42 35 -1 19 -2 42 -2 52 -1 10 12 21 33 28 37 12 57 41 66 100 8 48
44 89 106 120 39 20 48 30 53 60 7 35 7 35 61 35 l54 0 3 -37z m-792 -99 c22
-20 40 -40 40 -44 0 -10 -176 -183 -191 -188 -5 -2 4 31 20 75 50 135 76 193
83 193 5 0 26 -16 48 -36z m-2658 -36 c-9 -37 -60 -106 -84 -114 -15 -4 -25
-1 -35 11 -11 16 -10 20 7 32 11 8 25 11 32 7 7 -4 8 -3 4 4 -4 6 6 19 21 29
15 10 34 26 41 35 17 24 21 23 14 -4z m-735 -187 c78 -36 115 -87 127 -177 5
-34 3 -41 -12 -41 -26 -1 -51 26 -58 63 -8 44 -44 75 -98 85 -52 9 -88 0 -123
-33 -19 -18 -23 -33 -24 -82 -1 -87 -10 -108 -50 -130 -34 -18 -36 -18 -62 -1
-31 20 -45 60 -30 84 5 9 24 20 41 26 31 9 32 12 32 61 0 65 29 111 90 142 54
27 111 28 167 3z m616 -273 c55 -125 59 -138 46 -154 -13 -16 -29 -18 -29 -5
0 5 -14 40 -31 77 -35 80 -44 75 -54 -30 -7 -81 -16 -102 -39 -93 -18 7 -21
71 -7 145 5 24 6 42 2 40 -4 -2 -41 -23 -84 -46 -55 -31 -77 -49 -75 -60 4
-17 25 -19 66 -7 19 7 22 4 22 -23 0 -23 -5 -31 -23 -36 -13 -3 -30 -20 -40
-41 l-17 -36 22 15 c68 48 134 -31 78 -92 -43 -46 -116 -17 -107 42 2 18 -7
65 -24 115 -16 47 -29 93 -29 102 0 12 24 32 68 57 97 57 195 109 207 111 6 0
27 -36 48 -81z m-579 34 c-11 -7 -34 -45 -34 -56 0 -3 10 -6 23 -7 12 0 16 -3
9 -6 -6 -2 -10 -9 -6 -14 3 -5 0 -9 -6 -9 -6 0 -15 11 -22 25 -9 19 -8 29 6
50 9 14 22 25 29 25 8 0 9 -3 1 -8z m89 -63 c-6 -6 -7 3 -4 23 4 28 6 29 9 9
2 -13 0 -27 -5 -32z m-40 -40 c-6 -6 -19 -9 -29 -6 -16 4 -15 5 4 6 12 0 22 6
22 13 0 6 3 8 7 5 4 -4 2 -12 -4 -18z m3752 -90 c-17 -8 -16 -9 7 -6 15 2 25
1 22 -4 -2 -4 4 -12 13 -18 23 -13 12 -14 -21 -1 -14 5 -26 6 -26 1 0 -5 13
-11 28 -14 52 -10 68 -82 27 -122 -13 -14 -18 -25 -12 -25 7 0 19 6 26 13 10
10 11 9 6 -3 -6 -17 -50 -40 -77 -40 -28 0 -78 29 -78 44 0 8 -12 17 -26 20
-24 6 -26 10 -21 43 3 19 13 46 22 60 17 25 87 63 115 62 10 0 9 -3 -5 -10z
m-1444 -558 c35 -36 36 -45 4 -76 l-24 -25 -314 0 c-286 0 -315 2 -330 18 -30
33 -22 81 16 100 14 7 129 11 320 11 l299 1 29 -29z"/>
<path d="M4065 6980 c4 -6 11 -8 16 -5 14 9 11 15 -7 15 -8 0 -12 -5 -9 -10z"/>
<path d="M3029 6723 c-13 -16 -12 -17 4 -4 9 7 17 15 17 17 0 8 -8 3 -21 -13z"/>
<path d="M2377 6614 c-3 -3 -3 -12 0 -20 6 -16 -13 -19 -20 -4 -3 6 -4 5 -3
-2 4 -20 24 -20 35 1 10 18 1 38 -12 25z"/>
<path d="M2405 6579 c-4 -6 -5 -12 -2 -15 2 -3 7 2 10 11 7 17 1 20 -8 4z"/>
<path d="M2648 6513 c7 -3 16 -2 19 1 4 3 -2 6 -13 5 -11 0 -14 -3 -6 -6z"/>
<path d="M2698 6503 c7 -3 16 -2 19 1 4 3 -2 6 -13 5 -11 0 -14 -3 -6 -6z"/>
<path d="M2735 6500 c-3 -5 -2 -18 4 -27 7 -14 9 -12 8 10 -2 30 -3 31 -12 17z"/>
<path d="M2528 6480 c-10 -10 -14 -21 -10 -24 4 -2 15 7 25 20 21 29 9 32 -15
4z"/>
<path d="M2608 6493 c7 -3 16 -2 19 1 4 3 -2 6 -13 5 -11 0 -14 -3 -6 -6z"/>
<path d="M2500 6440 c0 -5 5 -10 11 -10 5 0 7 5 4 10 -3 6 -8 10 -11 10 -2 0
-4 -4 -4 -10z"/>
<path d="M3318 6043 c-37 -3 -52 -10 -73 -34 -30 -37 -34 -96 -7 -129 17 -21
23 -21 191 -18 l173 3 24 28 c32 37 32 87 0 124 -24 28 -26 28 -143 29 -65 1
-139 -1 -165 -3z"/>
<path d="M1451 6031 c-1 -8 -7 -11 -17 -7 -14 5 -15 4 -4 -9 15 -18 36 -5 27
17 -4 11 -6 11 -6 -1z"/>
<path d="M1480 6025 c0 -8 4 -15 10 -15 5 0 7 7 4 15 -4 8 -8 15 -10 15 -2 0
-4 -7 -4 -15z"/>
<path d="M2215 5650 c-3 -5 -2 -10 4 -10 5 0 13 5 16 10 3 6 2 10 -4 10 -5 0
-13 -4 -16 -10z"/>
<path d="M2311 5614 c0 -11 3 -14 6 -6 3 7 2 16 -1 19 -3 4 -6 -2 -5 -13z"/>
<path d="M2108 3853 c-65 -36 -72 -58 -65 -206 19 -385 171 -728 453 -1023
261 -272 704 -493 1065 -531 57 -6 59 -7 59 -34 0 -29 -1 -29 -60 -29 -83 0
-131 -25 -160 -85 -25 -51 -22 -101 10 -153 41 -67 41 -67 381 -67 296 0 309
1 336 21 97 72 98 205 1 264 -24 15 -51 20 -100 20 l-68 0 0 29 c0 28 1 29 69
35 291 29 665 193 927 407 164 134 336 352 429 544 102 209 143 372 152 602 6
133 5 143 -16 177 -39 63 -137 73 -199 21 -36 -30 -49 -77 -58 -215 -8 -140
-45 -321 -84 -411 -153 -361 -484 -657 -882 -790 -170 -57 -288 -74 -503 -74
-159 0 -190 3 -320 32 -248 54 -460 158 -666 329 -302 250 -457 559 -473 938
-4 117 -7 132 -31 168 -43 65 -116 76 -197 31z"/>
<path d="M3108 1453 c-10 -2 -21 -16 -25 -30 -4 -20 -1 -31 17 -45 21 -17 57
-18 684 -18 583 0 664 2 684 16 27 19 29 60 3 74 -19 10 -1325 13 -1363 3z"/>
<path d="M4865 1249 c-4 -6 -5 -12 -2 -15 2 -3 7 2 10 11 7 17 1 20 -8 4z"/>
<path d="M3017 1161 c-22 -7 -47 -34 -47 -51 0 -9 8 -24 18 -33 17 -16 87 -17
804 -17 748 0 786 1 801 18 22 24 21 45 -1 65 -16 15 -92 17 -790 19 -425 2
-778 1 -785 -1z"/>
<path d="M4926 1097 c3 -10 9 -15 12 -12 3 3 0 11 -7 18 -10 9 -11 8 -5 -6z"/>
<path d="M5126 704 c-4 -9 -4 -19 -1 -22 3 -3 5 0 5 7 0 8 6 11 16 7 14 -5 15
-4 4 9 -16 19 -16 19 -24 -1z"/>
<path d="M5165 640 c-3 -5 -1 -10 4 -10 6 0 11 5 11 10 0 6 -2 10 -4 10 -3 0
-8 -4 -11 -10z"/>
<path d="M5121 621 c-9 -6 -10 -11 -2 -15 6 -4 9 -12 6 -17 -10 -15 2 -10 16
8 12 14 12 16 0 8 -11 -6 -13 -4 -8 8 7 19 7 20 -12 8z"/>
<path d="M771 4801 c-11 -7 -10 -10 5 -14 17 -4 16 -5 -3 -6 -11 0 -33 -15
-47 -32 -48 -57 -27 -139 43 -168 25 -11 36 -10 74 7 51 23 75 53 84 105 8 49
-44 106 -102 113 -22 3 -46 1 -54 -5z"/>
<path d="M1667 4859 c7 -7 15 -10 18 -7 3 3 -2 9 -12 12 -14 6 -15 5 -6 -5z"/>
<path d="M1647 4805 c-6 -15 10 -32 20 -21 4 3 1 6 -5 6 -6 0 -9 7 -6 15 4 8
4 15 1 15 -3 0 -7 -7 -10 -15z"/>
<path d="M6910 4000 c-9 -6 -10 -10 -3 -10 6 0 15 5 18 10 8 12 4 12 -15 0z"/>
<path d="M6924 3977 c-5 -13 -10 -14 -25 -6 -13 6 -19 6 -19 -1 0 -5 7 -10 15
-10 11 0 14 -9 10 -35 -2 -19 0 -37 5 -40 6 -4 7 1 3 11 -4 12 -3 15 6 10 9
-6 12 -1 10 20 -2 16 0 35 5 42 4 7 5 16 2 19 -3 3 -8 -1 -12 -10z"/>
<path d="M6860 3921 c0 -6 4 -13 10 -16 6 -3 7 1 4 9 -7 18 -14 21 -14 7z"/>
<path d="M7135 3650 c-7 -12 2 -30 16 -30 15 0 39 26 32 34 -4 3 -15 -2 -25
-11 -18 -16 -18 -16 -12 0 7 18 -1 23 -11 7z"/>
<path d="M1202 3504 c10 -10 20 -15 24 -12 3 4 -5 12 -18 18 -22 12 -22 12 -6
-6z"/>
<path d="M1086 3381 c-3 -4 7 -6 22 -4 25 4 25 3 10 -10 -16 -13 -15 -14 11
-13 27 1 28 2 14 19 -17 18 -48 23 -57 8z"/>
<path d="M6245 3520 c-3 -5 -2 -10 4 -10 5 0 13 5 16 10 3 6 2 10 -4 10 -5 0
-13 -4 -16 -10z"/>
<path d="M6470 3365 c0 -8 4 -15 10 -15 5 0 7 7 4 15 -4 8 -8 15 -10 15 -2 0
-4 -7 -4 -15z"/>
<path d="M6380 2098 c-26 -43 -25 -54 5 -83 27 -28 45 -31 78 -14 30 16 37 28
37 65 0 39 -27 64 -68 64 -26 0 -36 -7 -52 -32z"/>
<path d="M880 2570 c-14 -10 -23 -21 -20 -23 3 -2 16 6 30 19 30 29 25 31 -10
4z"/>
<path d="M826 2515 c-11 -8 -15 -15 -9 -15 6 0 16 7 23 15 16 19 11 19 -14 0z"/>
<path d="M786 2453 c-6 -14 -5 -15 5 -6 7 7 10 15 7 18 -3 3 -9 -2 -12 -12z"/>
<path d="M835 2374 c5 -10 9 -31 9 -46 1 -14 4 -24 9 -21 4 2 7 -4 7 -13 0
-10 2 -15 5 -12 8 8 -16 97 -28 105 -7 4 -8 0 -2 -13z"/>
<path d="M814 2346 c-1 -13 4 -23 11 -23 7 0 10 8 7 19 -7 27 -17 29 -18 4z"/>
<path d="M784 2329 c-3 -6 -1 -16 4 -21 8 -8 11 -5 9 11 -1 24 -3 25 -13 10z"/>
<path d="M761 2320 c0 -8 4 -22 9 -30 12 -18 12 -2 0 25 -6 13 -9 15 -9 5z"/>
<path d="M892 2243 c-9 -3 -2 -12 19 -25 26 -16 30 -22 18 -30 -12 -8 -12 -9
1 -5 8 2 14 10 13 16 -4 14 14 15 22 1 3 -5 18 -10 33 -10 24 1 22 3 -12 15
-22 8 -43 13 -47 12 -4 -1 -14 5 -21 14 -7 9 -19 14 -26 12z"/>
<path d="M880 2202 c0 -5 7 -9 15 -9 8 0 12 4 9 9 -3 4 -9 8 -15 8 -5 0 -9 -4
-9 -8z"/>
<path d="M1243 1913 c-13 -2 -30 -14 -38 -26 -47 -67 38 -144 95 -87 16 16 20
32 19 65 -2 24 -6 42 -10 39 -4 -2 -10 0 -14 6 -6 10 -13 11 -52 3z"/>
<path d="M5805 1776 c-37 -16 -84 -63 -96 -94 -15 -40 -10 -95 12 -122 l21
-25 -5 28 c-5 35 -3 34 21 -6 10 -18 36 -41 57 -51 32 -15 44 -16 76 -7 52 16
99 71 99 119 l1 37 24 -30 25 -30 0 37 c0 26 -9 49 -32 79 -56 72 -131 97
-203 65z"/>
</g>
</svg>
